<svg xmlns="http://www.w3.org/2000/svg" width="18" height="17" viewBox="0 0 18 17">
  <path fill="#9AA0AF" fill-rule="evenodd" d="M18,0.708333333 L18,16.2916667 C18,16.5732484 17.5548895,16.9936306 17.25,17 L12.75,17 L12.75,10.625 L15,10.625 L15,7.79166667 L12.75,7.79166667 L12.75,6.375 C12.4226302,5.46496815 12.6384414,4.96178344 13.5,4.95833333 L15,4.95833333 L15,2.83333333 C14.9584114,2.63694268 14.1086549,2.56687898 12.75,2.83333333 C11.0333458,2.56687898 9.61708505,3.76433121 9.75,5.66666667 L9.75,7.79166667 L7.5,7.79166667 L7.5,10.625 L9.75,10.625 L9.75,17 L0.75,17 C0.445110528,17 0,16.5796178 0,16.2916667 L0,0.708333333 C0,0.420382166 0.445110528,0 0.75,0 L17.25,0 C17.5548895,0 18,0.414012739 18,0.708333333 L18,0.708333333 Z"/>
</svg>
