<svg xmlns="http://www.w3.org/2000/svg" width="18" height="18" viewBox="0 0 18 18">
  <path fill="#9AA0AF" d="M18,10.54534 L18,17.2000549 L14.1420172,17.2000549 L14.1420172,10.9910327 C14.1420172,9.43127568 13.5840016,8.36680252 12.1875397,8.36680252 C11.1215181,8.36680252 10.4871279,9.08417942 10.2080364,9.77812084 C10.1062595,10.0262022 10.0800619,10.3714989 10.0800619,10.7187626 L10.0800619,17.2000549 L6.22078179,17.2000549 C6.22078179,17.2000549 6.27275834,6.68400923 6.22078179,5.59446848 L10.0796853,5.59446848 L10.0796853,7.2395139 C10.0718595,7.25181753 10.0616902,7.26508369 10.0543248,7.27701067 L10.0796853,7.27701067 L10.0796853,7.2395139 C10.5923784,6.44986364 11.5079943,5.32182174 13.5574274,5.32182174 C16.0965365,5.32177989 18,6.9805518 18,10.54534 Z M2.18381045,0 C0.86355573,0 0,0.865982977 0,2.00478009 C0,3.11876071 0.83857183,4.01102491 2.13258718,4.01102491 L2.15836621,4.01102491 C3.50419072,4.01102491 4.34117229,3.11892811 4.34117229,2.00478009 C4.31581174,0.865982977 3.50419072,0 2.18381045,0 Z M0.229207402,17.2000549 L4.08702283,17.2000549 L4.08702283,5.59446848 L0.229207402,5.59446848 L0.229207402,17.2000549 Z"/>
</svg>
