<svg xmlns="http://www.w3.org/2000/svg" width="21" height="16" viewBox="0 0 21 16">
  <path fill="#9AA0AF" fill-rule="evenodd" d="M21,1.90667624 C20.2281214,2.22828428 19.3949825,2.44651831 18.5250875,2.53840632 C19.4194866,2.03302225 20.0933489,1.25197416 20.424154,0.298636037 C19.5910152,0.758076095 18.672112,1.10265614 17.6919487,1.27494616 C16.907818,0.493898062 15.7806301,0 14.5431739,0 C12.1662777,0 10.2304551,1.81478823 10.2304551,4.04307251 C10.2304551,4.36468055 10.2672112,4.66331658 10.3407235,4.96195262 C6.76312719,4.7896626 3.57759627,3.1816224 1.457993,0.735104092 C1.09043174,1.33237617 0.869894982,2.02153625 0.869894982,2.76812635 C0.869894982,4.16941852 1.62952159,5.40990668 2.79346558,6.13352477 C2.08284714,6.11055276 1.42123687,5.92677674 0.845390898,5.6281407 L0.845390898,5.67408471 C0.845390898,7.62670495 2.32788798,9.26920316 4.30046674,9.6367552 C3.93290548,9.72864322 3.55309218,9.77458722 3.16102684,9.77458722 C2.87922987,9.77458722 2.60968495,9.75161522 2.35239207,9.70567121 C2.90373396,11.3137114 4.49649942,12.4852836 6.38331389,12.5082556 C4.91306884,13.5879397 3.05075846,14.2426418 1.02917153,14.2426418 C0.686114352,14.2426418 0.343057176,14.2196698 0,14.1852118 C1.91131855,15.3338119 4.17794632,16 6.60385064,16 C14.5309218,16 18.8681447,9.84350323 18.8681447,4.50251256 C18.8681447,4.33022254 18.8681447,4.15793252 18.8558926,3.9741565 C19.6890315,3.43431443 20.424154,2.72218234 21,1.90667624 L21,1.90667624 L21,1.90667624 Z"/>
</svg>
