<svg xmlns="http://www.w3.org/2000/svg" baseProfile="tiny" overflow="visible" version="1.2" viewBox="0 0 512 512"><path d="M249 155c-1 27-12 51-36 68-11 8-25 13-39 16-20 3-37-3-54-11-13-6-25-5-36 4-10 8-14 19-12 32 3 17 12 27 27 30 9 1 16-1 23-5 12-7 25-10 39-10 18 0 34 5 50 15 16 11 27 26 33 45a87 87 0 01-117 108 83 83 0 01-46-47l-4-13c-2-6 0-9 6-9l26-4 13-1c3-1 6 1 7 5 5 14 15 22 31 23 14 0 25-7 32-19 6-14 4-32-11-44-10-7-21-7-32-3s-22 10-33 12c-9 2-18 2-26 0-17-4-33-11-45-24a87 87 0 01-24-87c9-34 32-55 66-64 18-5 36-1 53 7 6 2 12 6 19 7 13 2 23-3 30-14 11-18 7-39-12-50-11-8-30-6-40 6-4 5-7 10-8 16-1 2-4 5-6 5l-42-2c-5 0-6-3-6-8 2-13 6-24 13-34 8-14 19-24 32-31 43-22 88-7 113 25 12 16 16 35 16 56zM412 347c-15 1-30-5-44-12l-12-4c-19-1-34 20-33 37 2 21 18 34 39 33 11-1 25-14 27-24 1-7 4-9 11-8l34 1c7 1 9 3 8 9-1 13-4 25-12 36a87 87 0 01-78 39c-53-3-83-45-83-88 0-39 28-76 63-85 23-5 44-4 64 8 17 10 35 2 43-7 9-12 10-27 3-40-5-10-13-17-25-17-7 0-14 1-20 4-16 8-33 13-51 11-31-5-55-22-68-51-18-37-8-80 24-106 20-17 45-21 71-17 30 5 50 22 63 50l5 13c2 6-1 10-6 11l-41 5c-3 1-5-2-6-5-8-24-39-30-56-12-17 17-10 45 10 55 9 5 18 5 27 0 16-8 33-13 51-12 31 2 63 25 73 55 8 22 9 44 1 65a84 84 0 01-82 56z"/></svg>